<svg width="28" height="28" viewBox="0 0 28 28" fill="none" xmlns="http://www.w3.org/2000/svg">
<g id="Brain" clip-path="url(#clip0_37_641)">
<g id="Group">
<g id="Group_2">
<path id="Vector" d="M16.445 2.89902L16.445 2.89903C16.777 3.03105 16.9391 3.40715 16.8071 3.73913L16.2996 5.01544L16.8155 5.10639L16.8155 5.10639L16.7981 5.20487L16.445 2.89902ZM16.445 2.89902C16.1129 2.76707 15.7369 2.92917 15.6049 3.26114L15.6978 3.29809M16.445 2.89902L15.6978 3.29809M15.6978 3.29809L15.6049 3.26114L14.8039 5.27555M15.6978 3.29809L14.8039 5.27555M22.827 20.2463L22.827 20.2463C23.1307 20.0583 23.5295 20.1519 23.7175 20.4556L22.827 20.2463ZM22.827 20.2463C22.3547 20.5388 21.8096 20.6935 21.2503 20.6935C20.1514 20.6935 19.1415 20.0935 18.6146 19.1275L18.5268 19.1754M22.827 20.2463L18.5268 19.1754M4.18431 11.001L4.11261 10.9313C4.80934 10.2145 5.71599 9.76815 6.69715 9.65234C7.47589 8.35284 8.86268 7.56011 10.3993 7.56011C11.2212 7.56011 12.0255 7.79609 12.7137 8.23242C13.4503 7.69228 14.3383 7.39972 15.2638 7.39972C15.292 7.39972 15.3201 7.40006 15.348 7.40067L15.8085 6.24256L15.2927 6.15161L15.2927 6.15161L4.18431 11.001ZM4.18431 11.001L4.1126 10.9313C3.32501 11.7416 2.89104 12.8109 2.89104 13.9413C2.89104 14.2949 2.93406 14.6453 3.01916 14.9867C2.64893 15.6443 2.45469 16.3858 2.45469 17.149C2.45469 18.6799 3.23933 20.03 4.42625 20.8209C4.86658 22.6024 6.47122 23.8719 8.32884 23.8719C8.54646 23.8719 8.76344 23.8542 8.977 23.8195C9.71734 24.4596 10.6715 24.859 11.7163 24.8916C12.362 24.912 12.9952 24.7929 13.5798 24.5446L15.2576 27.7528L15.3463 27.7065L15.2577 27.7528C15.3692 27.9662 15.5901 28.1 15.8308 28.1H18.0261C18.3833 28.1 18.673 27.8104 18.673 27.4531V24.7515C20.2405 24.495 21.5661 23.4025 22.1099 21.9002C22.6034 21.7997 23.0769 21.6134 23.5083 21.3462C23.812 21.1581 23.9057 20.7594 23.7176 20.4557L4.18431 11.001ZM14.8401 5.82973C14.8401 5.82973 14.8401 5.82973 14.8401 5.82972L14.9275 5.781L14.8401 5.82973ZM14.8401 5.82973C14.7453 5.6598 14.732 5.45629 14.8039 5.27555M14.8401 5.82973L14.8039 5.27555M18.5268 19.1754L18.6146 19.1275C18.4435 18.8138 18.0506 18.6983 17.737 18.8693L17.737 18.8693M18.5268 19.1754L17.737 18.8693M17.737 18.8693C17.4234 19.0404 17.3077 19.4333 17.4788 19.747C18.1381 20.9558 19.3267 21.7641 20.6669 21.9475M17.737 18.8693L20.6669 21.9475M20.6669 21.9475C20.1303 22.8815 19.1294 23.4964 18.0153 23.5149C17.6623 23.5208 17.3792 23.8086 17.3792 24.1617V26.8062H16.2225L14.4275 23.374C14.344 23.2142 14.1974 23.0965 14.0233 23.0494L13.9972 23.1459L14.0233 23.0494C13.8494 23.0023 13.6634 23.0299 13.5105 23.1259M20.6669 21.9475L9.73749 17.3064C9.98329 17.5656 9.97235 17.975 9.71309 18.2208L9.64429 18.1483L9.71309 18.2208C9.06601 18.8343 8.71204 19.6982 8.74198 20.5911C8.79687 22.2262 10.1212 23.5474 11.7566 23.5985C12.3798 23.6177 12.9867 23.4545 13.5105 23.1259M13.5105 23.1259C13.5105 23.1258 13.5105 23.1258 13.5105 23.1258L13.5637 23.2106L13.5105 23.1259ZM8.823 17.282C8.01048 18.0523 7.52479 19.1011 7.45522 20.2098C7.26185 20.2469 7.06461 20.2658 6.86514 20.2658C5.14659 20.2658 3.74832 18.8675 3.74832 17.149C3.74832 16.536 3.92496 15.9441 4.25902 15.4369L4.25903 15.4369C4.36729 15.2725 4.39487 15.0678 4.3338 14.8806L8.823 17.282ZM8.823 17.282C9.08221 17.0361 9.49173 17.0471 9.73748 17.3063L8.823 17.282ZM4.96869 11.7632L5.0404 11.8329C4.48849 12.4007 4.18473 13.1493 4.18473 13.9413C4.18473 14.2611 4.23486 14.5771 4.33379 14.8806L4.96869 11.7632ZM4.96869 11.7632L5.04041 11.8329C5.5912 11.2662 6.32833 10.9412 7.11666 10.9173C7.35678 10.9101 7.5731 10.7704 7.67847 10.5544L7.67847 10.5544M4.96869 11.7632L7.67847 10.5544M7.67847 10.5544C8.19049 9.50513 9.23264 8.85375 10.3994 8.85375C11.1028 8.85375 11.7879 9.10049 12.3283 9.5483L12.3283 9.54831M7.67847 10.5544L12.3283 9.54831M12.3283 9.54831C12.5802 9.75697 12.9479 9.74488 13.1855 9.52023L13.1168 9.44757M12.3283 9.54831L13.1168 9.44757M13.1168 9.44757L13.1855 9.52022C13.7495 8.98692 14.4874 8.6933 15.2638 8.6933C16.0469 8.6933 16.7859 8.9941 17.3416 9.51989C16.9574 9.6936 16.5976 9.92389 16.2758 10.2073C16.0076 10.4433 15.9816 10.852 16.2177 11.1202C16.4537 11.3884 16.8625 11.4143 17.1306 11.1783C17.6779 10.6965 18.3814 10.4311 19.1116 10.4311C20.7655 10.4311 22.1113 11.7769 22.1113 13.4308C22.1113 13.6831 22.0807 13.9323 22.0205 14.1712L22.1174 14.1956M13.1168 9.44757L22.1174 14.1956M22.1174 14.1956L22.0205 14.1712C21.9425 14.4807 22.1018 14.8008 22.3957 14.9252C23.1575 15.2474 23.7629 15.8735 24.0563 16.6424M22.1174 14.1956L24.0563 16.6424M24.8913 17.0161C25.2251 16.8887 25.3923 16.5149 25.265 16.1812C24.9091 15.2487 24.2329 14.4645 23.3719 13.9686C23.3939 13.791 23.405 13.6113 23.405 13.4309C23.405 11.0635 21.4791 9.13757 19.1115 9.13757C18.9865 9.13757 18.8624 9.14354 18.7393 9.15438C18.2082 8.43493 17.4771 7.9074 16.65 7.62767L17.3042 5.98245L17.2113 5.9455L17.3042 5.98245C17.3761 5.80172 17.3629 5.59814 17.268 5.42825C17.268 5.42826 17.268 5.42827 17.268 5.42828L24.8913 17.0161ZM24.8913 17.0161C24.8156 17.0451 24.7376 17.0588 24.6608 17.0588M24.8913 17.0161L24.6608 17.0588M24.0563 16.6424C24.1547 16.9004 24.4004 17.0588 24.6608 17.0588M24.0563 16.6424L24.6608 17.0588M6.86519 21.5595C7.10163 21.5595 7.33581 21.5402 7.56652 21.5032C7.65453 21.8733 7.78936 22.2255 7.9644 22.5531C7.2351 22.4554 6.58884 22.0686 6.15722 21.5018C6.3877 21.5395 6.6241 21.5595 6.86519 21.5595Z" fill="#449DD0" stroke="#449DD0" stroke-width="0.2"/>
<path id="Vector_2" d="M16.9766 17.1455L16.9766 17.1454C16.6561 16.1951 16.9339 15.1508 17.6842 14.4854L16.9766 17.1455ZM16.9766 17.1455C17.0678 17.4155 17.3197 17.5857 17.5896 17.5857C17.6583 17.5857 17.728 17.5747 17.7963 17.5517L17.7964 17.5517M16.9766 17.1455L17.7964 17.5517M17.7964 17.5517C18.1349 17.4375 18.3167 17.0705 18.2025 16.732M17.7964 17.5517L19.3684 15.1525M19.3684 15.1525C19.0633 15.1447 18.7708 15.2511 18.5426 15.4533C18.1819 15.7733 18.0485 16.275 18.2025 16.732M19.3684 15.1525C19.7269 15.1617 20.0227 14.8803 20.0324 14.5233C20.0421 14.1662 19.7604 13.8689 19.4032 13.8592L19.3684 15.1525ZM19.3684 15.1525L19.371 15.0525L19.3685 15.1525C19.3685 15.1525 19.3685 15.1525 19.3684 15.1525ZM18.2025 16.732L18.1078 16.7639M18.2025 16.732L18.1078 16.7639M18.1078 16.7639C18.2043 17.0502 18.0506 17.3604 17.7644 17.4569M18.1078 16.7639C17.9409 16.2689 18.0855 15.7251 18.4763 15.3785C18.7235 15.1594 19.0406 15.0441 19.371 15.0525C19.6743 15.0603 19.9242 14.8225 19.9324 14.5206L17.7644 17.4569M17.7644 17.4569C17.7065 17.4764 17.6475 17.4857 17.5896 17.4857C17.3613 17.4857 17.1484 17.3417 17.0714 17.1135L17.7644 17.4569ZM19.4032 13.8592C18.77 13.8418 18.1587 14.0646 17.6842 14.4854L19.4032 13.8592Z" fill="#449DD0" stroke="#449DD0" stroke-width="0.2"/>
<path id="Vector_3" d="M6.62071 14.6844L6.62071 14.6844C6.87338 14.937 7.28285 14.937 7.53555 14.6844L7.53557 14.6844C7.74815 14.4718 8.03034 14.3549 8.331 14.3549C8.63167 14.3549 8.91386 14.4718 9.12649 14.6844C9.2528 14.8107 9.41851 14.8739 9.58389 14.8739C9.7493 14.8739 9.91499 14.8106 10.0413 14.6844L10.0413 14.6844C10.2939 14.4318 10.2939 14.0222 10.0413 13.7696C9.58461 13.3129 8.97692 13.0611 8.331 13.0611C7.68509 13.0611 7.07734 13.3128 6.62071 13.7696C6.3681 14.0222 6.3681 14.4318 6.62071 14.6844Z" fill="#449DD0" stroke="#449DD0" stroke-width="0.2"/>
<path id="Vector_4" d="M15.0726 12.141L15.0726 12.141C14.1294 11.1979 12.5952 11.1979 11.652 12.141L11.652 12.141C11.3993 12.3936 11.3993 12.8032 11.652 13.0558C11.9046 13.3085 12.3141 13.3085 12.5668 13.0558L12.5668 13.0558C13.0053 12.6173 13.7193 12.6173 14.1578 13.0558C14.2841 13.1821 14.4498 13.2453 14.6152 13.2453C14.7806 13.2453 14.9463 13.1821 15.0726 13.0558L15.0726 13.0558C15.3252 12.8032 15.3252 12.3937 15.0726 12.141Z" fill="#449DD0" stroke="#449DD0" stroke-width="0.2"/>
<path id="Vector_5" d="M14.9944 20.3161L14.9944 20.3161C14.9337 20.6246 14.6631 20.8382 14.3602 20.8382C14.3188 20.8382 14.2768 20.8342 14.2348 20.826C14.2348 20.826 14.2348 20.826 14.2348 20.826L14.9944 20.3161ZM14.9944 20.3161C15.1613 19.4674 14.9876 18.604 14.5055 17.8858L14.5055 17.8858C14.0233 17.1677 13.29 16.68 12.4414 16.5131L14.9944 20.3161Z" fill="#449DD0" stroke="#449DD0" stroke-width="0.2"/>
<path id="Vector_6" d="M21.7899 5.0508L20.1321 7.29475C20.1321 7.29476 20.1321 7.29476 20.1321 7.29476C19.9641 7.52203 19.9632 7.83195 20.1297 8.06022L20.1297 8.06022C20.2539 8.23055 20.4498 8.32607 20.6524 8.32601L21.7899 5.0508ZM21.7899 5.0508L20.8232 4.49265C20.8232 4.49264 20.8232 4.49264 20.8232 4.49264C20.6522 4.39393 20.5356 4.22257 20.5067 4.0272L20.5067 4.02717C20.4778 3.83185 20.5396 3.63405 20.6747 3.48998L20.6747 3.48998L23.849 0.10445C23.849 0.104448 23.849 0.104445 23.849 0.104443C24.0545 -0.114712 24.3839 -0.163561 24.6441 -0.0134819L21.7899 5.0508ZM27.8631 2.85364C28.0275 2.71912 28.1153 2.5123 28.098 2.3005C28.0807 2.08875 27.9605 1.89895 27.7764 1.79285C27.7764 1.79284 27.7764 1.79284 27.7764 1.79283L24.6441 -0.0134706L27.7998 2.77624M27.8631 2.85364L27.7998 2.77624M27.8631 2.85364L27.8631 2.85361L27.7998 2.77624M27.8631 2.85364L26.0074 4.37328M27.7998 2.77624L25.9149 4.31983L26.0074 4.37328M26.0074 4.37328L27.1527 5.03453M26.0074 4.37328L25.9247 4.441L27.1027 5.12113M27.1527 5.03453L27.1527 5.03453L27.1027 5.12113M27.1527 5.03453C27.3727 5.16157 27.4981 5.40576 27.4729 5.65871C27.4478 5.91162 27.2769 6.12639 27.036 6.20764M27.1527 5.03453L27.1027 5.12113M27.1027 5.12113L27.036 6.20764M27.036 6.20764L27.0041 6.11289L27.036 6.20764L27.036 6.20764ZM24.4638 3.96521L24.4638 3.96523C24.2995 4.09984 24.2117 4.3065 24.2289 4.51821C24.2461 4.72994 24.3663 4.91973 24.5502 5.0259C24.5502 5.0259 24.5502 5.02591 24.5503 5.02591L25.2665 5.43941L22.3957 6.40816L23.2609 5.2371L23.2609 5.23709C23.3704 5.08891 23.4115 4.90113 23.3739 4.72076C23.3363 4.54042 23.2237 4.38465 23.0641 4.29253C23.0641 4.29253 23.0641 4.29252 23.0641 4.29252L22.1764 3.77998L24.4421 1.36351L26.3192 2.44593L24.4638 3.96521Z" fill="#449DD0" stroke="#449DD0" stroke-width="0.2"/>
<path id="Vector_7" d="M6.71511 2.84377L6.71511 2.8438L5.71427 8.67944C5.66731 8.95333 5.45061 9.16667 5.176 9.2093C5.14274 9.21447 5.1095 9.21699 5.07655 9.21699C4.83779 9.21699 4.61474 9.08462 4.50235 8.86774L3.36614 6.67511L2.35843 7.25689L2.35841 7.2569C2.19004 7.35405 1.98713 7.37029 1.80569 7.30153L1.80565 7.30151C1.62408 7.23262 1.48302 7.0858 1.42144 6.90159L1.42143 6.90156L-0.0666138 2.4465L-0.0666149 2.4465C-0.16727 2.14512 -0.0340829 1.81515 0.247637 1.66812L3.4946 -0.0265956L3.49461 -0.0266011C3.67717 -0.121858 3.89443 -0.124617 4.07931 -0.0335925L6.71511 2.84377ZM6.71511 2.84377C6.75754 2.59604 6.65269 2.34617 6.44622 2.20289L6.44621 2.20288C6.23972 2.05966 5.96888 2.04899 5.75172 2.17558L5.75172 2.17558L4.83517 2.70996L6.71511 2.84377ZM5.20562 3.99156L4.6862 4.29441C4.6862 4.29441 4.68619 4.29441 4.68619 4.29441C4.50351 4.40095 4.28045 4.41142 4.08861 4.32262C3.89675 4.23381 3.76039 4.05683 3.72345 3.84872C3.72345 3.84871 3.72345 3.84871 3.72345 3.8487L3.31133 1.52848L1.33523 2.55983L2.39757 5.74036L3.30557 5.21611C3.30558 5.21611 3.30558 5.2161 3.30559 5.2161C3.40483 5.15878 3.51654 5.12942 3.62902 5.12942C3.68988 5.12942 3.75102 5.13795 3.81067 5.15543L5.20562 3.99156ZM5.20562 3.99156L4.76478 6.56209L4.20338 5.47867L4.20338 5.47866C4.12208 5.32182 3.98024 5.20507 3.81072 5.15545L5.20562 3.99156Z" fill="#449DD0" stroke="#449DD0" stroke-width="0.2"/>
<path id="Vector_8" d="M10.3352 4.77135L9.81936 4.8623L9.81935 4.8623L9.80198 4.76382C9.63989 4.79242 9.47375 4.74654 9.34939 4.63897L10.3352 4.77135ZM10.3352 4.77135L10.2948 6.14431L10.2948 6.14432C10.2843 6.50139 10.5653 6.79939 10.9224 6.80994L10.3352 4.77135ZM9.06043 4.20626C9.05474 4.40068 9.13676 4.58738 9.284 4.71463L10.8928 3.35936L10.377 3.4503L10.4174 2.07735L10.4174 2.07733C10.4279 1.72025 10.1469 1.42225 9.78984 1.41171V1.41171L9.78951 1.4117C9.43444 1.4024 9.13476 1.68166 9.1242 2.03929L9.1242 2.0393L9.06043 4.20624L9.06043 4.20626Z" fill="#449DD0" stroke="#449DD0" stroke-width="0.2"/>
<path id="Vector_9" d="M24.7031 19.5194C25.0604 19.5194 25.35 19.2298 25.35 18.8726C25.35 18.5153 25.0604 18.2257 24.7031 18.2257C24.3459 18.2257 24.0562 18.5153 24.0562 18.8726C24.0562 19.2298 24.3459 19.5194 24.7031 19.5194Z" fill="#449DD0" stroke="#449DD0" stroke-width="0.2"/>
</g>
</g>
</g>
<defs>
<clipPath id="clip0_37_641">
<rect width="28" height="28" fill="white"/>
</clipPath>
</defs>
</svg>
