<svg width="28" height="28" viewBox="0 0 28 28" fill="none" xmlns="http://www.w3.org/2000/svg">
<g id="Hypertension" clip-path="url(#clip0_37_628)">
<g id="Group">
<path id="Vector" d="M23.7194 11.1294C23.6505 9.52509 22.9935 8.02345 21.849 6.87104C20.6149 5.62828 18.9704 4.94385 17.2186 4.94385C15.0492 4.94385 13.0571 6.03048 11.8627 7.76485C10.6682 6.03043 8.67619 4.94385 6.50686 4.94385C4.77085 4.94385 3.1395 5.62095 1.91326 6.85042C0.691557 8.07535 0.0121579 9.70702 0.00012737 11.4449C-0.0181919 14.0907 1.93967 16.9806 5.81937 20.0343C8.61161 22.232 11.3646 23.6908 11.4805 23.7518C11.6001 23.8148 11.7315 23.8463 11.8628 23.8463C11.9949 23.8463 12.1271 23.8145 12.2472 23.7506C12.3079 23.7184 13.5934 23.0331 15.2937 21.9015C16.5868 23.6016 18.6303 24.7013 20.9263 24.7013C24.8267 24.7013 27.9999 21.5281 27.9999 17.6277C27.9998 14.7188 26.2346 12.2147 23.7194 11.1294ZM3.07476 8.00891C3.991 7.09027 5.2098 6.58438 6.50681 6.58438C8.56075 6.58438 10.4023 7.88811 11.0895 9.82859C11.2055 10.1561 11.5152 10.375 11.8627 10.375C12.2102 10.375 12.52 10.1561 12.6359 9.82859C13.3231 7.88811 15.1647 6.58438 17.2187 6.58438C18.5301 6.58438 19.7612 7.09672 20.6851 8.02701C21.4033 8.75032 21.8629 9.65759 22.0218 10.639C21.6646 10.5832 21.2988 10.554 20.9263 10.554C19.3231 10.554 17.843 11.0905 16.6554 11.9928H11.2844C10.9551 11.9928 10.6577 12.1898 10.5291 12.493L9.74784 14.3361L8.66843 10.4064C8.57639 10.0713 8.28312 9.8305 7.93648 9.80551C7.58901 9.78008 7.26506 9.97667 7.12589 10.2951L5.63946 13.6955H2.2336C1.83643 12.9066 1.63574 12.1566 1.6406 11.4563C1.64957 10.1514 2.15896 8.92717 3.07476 8.00891ZM11.8614 22.0895C11.0156 21.6147 8.9004 20.374 6.81588 18.7309C5.33087 17.5603 4.15324 16.4212 3.29875 15.3361H6.17602C6.50199 15.3361 6.79702 15.143 6.9276 14.8443L7.70046 13.0763L8.79097 17.0464C8.88344 17.3831 9.17901 17.6244 9.52746 17.6476C9.54584 17.6488 9.56405 17.6494 9.5822 17.6494C9.90954 17.6494 10.208 17.4538 10.3372 17.1492L11.8275 13.6334H15.0915C14.3104 14.7708 13.8526 16.1467 13.8526 17.6277C13.8526 18.6449 14.0688 19.6125 14.4571 20.4874C13.3257 21.2432 12.3668 21.804 11.8614 22.0895ZM20.9262 23.0608C17.9303 23.0608 15.493 20.6235 15.493 17.6277C15.493 14.6318 17.9303 12.1946 20.9262 12.1946C23.922 12.1946 26.3593 14.6318 26.3593 17.6277C26.3593 20.6235 23.922 23.0608 20.9262 23.0608Z" fill="#449DD0"/>
<path id="Vector_2" d="M22.8782 14.6644C22.8443 14.6739 22.038 14.901 21.1387 15.212C19.409 15.8102 18.9018 16.1722 18.6532 16.4208C17.6937 17.3802 17.6937 18.9414 18.6532 19.9009C19.1329 20.3806 19.7631 20.6204 20.3932 20.6204C21.0233 20.6204 21.6535 20.3806 22.1332 19.9009C22.1332 19.9009 22.1332 19.9009 22.1332 19.9008C22.3818 19.6522 22.7439 19.1451 23.342 17.4153C23.653 16.5161 23.8801 15.7097 23.8896 15.6758C23.9698 15.3903 23.8896 15.0837 23.6799 14.874C23.4703 14.6643 23.1636 14.5842 22.8782 14.6644ZM20.9731 18.741C20.973 18.741 20.9729 18.7411 20.9729 18.7412C20.653 19.0607 20.1329 19.0605 19.8132 18.7409C19.4934 18.421 19.4934 17.9006 19.8127 17.5813C20.0202 17.3821 20.8767 17.0315 21.854 16.6998C21.5068 17.7182 21.1552 18.5506 20.9731 18.741Z" fill="#449DD0"/>
<path id="Vector_3" d="M7.98428 23.6515C7.97941 23.6514 7.9746 23.6514 7.96979 23.6514C7.52334 23.6514 7.15767 24.0093 7.1499 24.4574L7.11731 26.3389C7.10949 26.7919 7.4703 27.1654 7.92325 27.1733C7.92812 27.1734 7.93293 27.1734 7.93774 27.1734C8.38419 27.1734 8.74981 26.8154 8.75763 26.3673L8.79022 24.4858C8.79809 24.0329 8.43723 23.6594 7.98428 23.6515Z" fill="#449DD0"/>
<path id="Vector_4" d="M5.09883 22.834C4.7348 22.5644 4.22109 22.6409 3.9515 23.0049L3.04007 24.2355C2.77043 24.5995 2.84698 25.1132 3.21102 25.3828C3.35785 25.4916 3.52895 25.544 3.69858 25.544C3.94964 25.544 4.19747 25.4291 4.35835 25.2119L5.26978 23.9813C5.53937 23.6173 5.46287 23.1036 5.09883 22.834Z" fill="#449DD0"/>
<path id="Vector_5" d="M3.47711 20.3132C3.33756 19.8823 2.8752 19.6459 2.44407 19.7855L0.653755 20.3651C0.222733 20.5046 -0.0135039 20.9671 0.126051 21.3981C0.238427 21.7452 0.56019 21.966 0.906288 21.966C0.989955 21.966 1.07515 21.953 1.15909 21.9259L2.94941 21.3463C3.38037 21.2067 3.61667 20.7442 3.47711 20.3132Z" fill="#449DD0"/>
<path id="Vector_6" d="M24.5152 8.27837C24.5821 8.67954 24.9296 8.96389 25.3233 8.96389C25.3681 8.96389 25.4135 8.96023 25.4592 8.95263L27.3153 8.64317C27.7622 8.56869 28.064 8.14603 27.9895 7.69915C27.915 7.25233 27.4922 6.95052 27.0455 7.02495L25.1893 7.33441C24.7426 7.40889 24.4407 7.83154 24.5152 8.27837Z" fill="#449DD0"/>
<path id="Vector_7" d="M23.8593 5.78628C24.0692 5.78628 24.2792 5.70617 24.4393 5.54605L25.5222 4.46324C25.8425 4.1429 25.8425 3.62356 25.5222 3.30322C25.2019 2.98288 24.6825 2.98294 24.3622 3.30322L23.2793 4.38603C22.959 4.70637 22.959 5.22571 23.2793 5.54605C23.4395 5.70622 23.6494 5.78628 23.8593 5.78628Z" fill="#449DD0"/>
<path id="Vector_8" d="M20.5488 4.31256C20.5945 4.32016 20.6399 4.32388 20.6847 4.32388C21.0783 4.32388 21.4259 4.03957 21.4928 3.63841L21.8023 1.7822C21.8768 1.33537 21.575 0.912717 21.1281 0.838183C20.6816 0.763757 20.2587 1.06551 20.1841 1.51239L19.8746 3.36859C19.8001 3.81537 20.1019 4.23802 20.5488 4.31256Z" fill="#449DD0"/>
</g>
</g>
<defs>
<clipPath id="clip0_37_628">
<rect width="28" height="28" fill="white"/>
</clipPath>
</defs>
</svg>
