<svg width="28" height="28" viewBox="0 0 28 28" fill="none" xmlns="http://www.w3.org/2000/svg">
<g id="Heart" clip-path="url(#clip0_37_656)">
<g id="Group">
<path id="Vector" d="M22.4062 5.52962L22.407 5.53002C23.1188 5.89922 23.4642 6.72618 23.2289 7.49584C22.9863 8.28976 22.263 8.82727 21.43 8.83333C21.0902 8.83578 20.7762 8.97352 20.548 9.20737C21.6283 10.3079 22.2981 11.8135 22.305 13.4726L22.3051 13.4807V21.7936C22.3051 25.2711 19.4761 28.1001 15.9986 28.1001C9.522 28.1001 4.25308 22.8312 4.25308 16.3546C4.25308 15.217 4.46655 14.1181 4.85967 13.102C4.57906 12.4777 4.41233 11.8009 4.37002 11.1145L2.45451 9.80067C2.19982 9.62606 2.10415 9.29576 2.22596 9.01205L2.97692 7.26273L2.97692 7.26272L3.06881 7.30217C3.17381 7.05756 3.43981 6.92401 3.69864 6.98608L22.4062 5.52962ZM22.4062 5.52962C21.1825 4.90869 19.7373 4.76809 18.4134 5.17457C17.2417 5.53435 16.25 6.2706 15.5774 7.26803C14.8644 7.01984 14.3516 6.3415 14.3516 5.54606C14.3516 4.54025 15.1701 3.72179 16.1759 3.72179C16.5003 3.72179 16.7745 3.48154 16.8172 3.15997L17.1362 0.755501L17.1362 0.755487C17.1809 0.418753 16.9574 0.104752 16.6247 0.0366928C16.1819 -0.0538607 15.7267 -0.0997559 15.2714 -0.0997559C12.2112 -0.0997559 9.62289 1.95655 8.81464 4.75967L7.96584 3.70531L7.96583 3.7053C7.78551 3.48139 7.47893 3.40321 7.21352 3.51371C7.21351 3.51371 7.2135 3.51372 7.21349 3.51372L5.74458 4.12478L22.4062 5.52962ZM10.9569 7.63027C10.6325 7.71639 10.3163 7.81986 10.0089 7.93919C9.90147 7.50996 9.8467 7.06809 9.8467 6.61875C9.8467 3.62769 12.2802 1.1941 15.2713 1.1941C15.4379 1.1941 15.6044 1.20167 15.7699 1.21674L15.6022 2.48108C14.1559 2.75112 13.0579 4.02261 13.0579 5.54617C13.0579 7.26485 14.4565 8.66293 16.1759 8.66293C18.8421 8.66287 21.0113 10.8321 21.0113 13.4983V21.7936C21.0113 24.5575 18.7625 26.8063 15.9986 26.8063C10.2355 26.8063 5.54682 22.1176 5.54682 16.3546C5.54682 12.8518 7.90819 9.77835 11.2889 8.88068C11.6342 8.78901 11.8398 8.43472 11.7481 8.08949C11.6565 7.74432 11.3023 7.53843 10.9569 7.63027ZM10.9569 7.63027L10.9826 7.72692M10.9569 7.63027C10.9569 7.63028 10.9569 7.63028 10.9569 7.63028L10.9826 7.72692M10.9826 7.72692C11.2745 7.64927 11.574 7.82328 11.6515 8.11515C11.7289 8.40701 11.5551 8.70653 11.2632 8.78403L10.0343 8.03663C10.3417 7.91683 10.658 7.81309 10.9826 7.72692ZM5.5221 7.31978L3.72196 6.88884L5.74457 4.12478C5.45652 4.24459 5.29506 4.55289 5.36059 4.85788L5.81361 6.96677C5.78667 6.99629 5.75923 7.02664 5.73251 7.05773L5.73251 7.05773C5.659 7.14329 5.58927 7.23101 5.5221 7.31978ZM6.71373 7.90101C6.79801 7.80299 6.8862 7.70906 6.97806 7.61931L6.98032 7.61714C6.98063 7.61684 6.98094 7.61654 6.98125 7.61624C7.43082 7.17826 7.96785 6.84301 8.55297 6.63081C8.5541 7.2698 8.64417 7.89753 8.82111 8.50342C7.55131 9.22526 6.4862 10.2412 5.70464 11.4478C5.67007 11.2245 5.65259 10.9971 5.65259 10.7662C5.65259 9.71468 6.02947 8.69712 6.71373 7.90101ZM6.73855 5.11254L7.26231 4.89464L7.78533 5.54431C7.48784 5.67364 7.20191 5.82834 6.93057 6.00644L6.73855 5.11254ZM3.62435 9.03425L3.95078 8.27385L4.8364 8.48587C4.67745 8.84932 4.55631 9.22881 4.47601 9.61844L3.62435 9.03425ZM21.7947 6.66993C21.9552 6.75346 22.0434 6.94846 21.9917 7.11781C21.9153 7.36781 21.6866 7.53772 21.4207 7.53965C20.6909 7.54489 20.0182 7.85717 19.5482 8.38291C18.8245 7.90417 17.9936 7.57483 17.0999 7.43909C17.5621 6.96633 18.1401 6.61195 18.7932 6.41137L18.7638 6.31578L18.7932 6.41137C19.7941 6.10392 20.871 6.20126 21.7947 6.66993Z" fill="#449DD0" stroke="#449DD0" stroke-width="0.2"/>
<path id="Vector_2" d="M18.8852 19.7831L18.8853 19.7831C19.2374 19.7285 19.5689 19.9697 19.6239 20.3229C19.6788 20.6759 19.4371 21.0066 19.0841 21.0615L19.0687 20.9627L19.0841 21.0615C18.7446 21.1143 18.4046 21.1409 18.0658 21.1413C18.3123 21.3294 18.5764 21.4972 18.8561 21.6416L18.8562 21.6416C19.1736 21.8054 19.2982 22.1955 19.1344 22.513L19.0455 22.4672L19.1344 22.513C19.0194 22.7358 18.7931 22.8634 18.5591 22.8634C18.4591 22.8634 18.3576 22.8402 18.2628 22.7913C17.197 22.2413 16.3126 21.4199 15.6875 20.4262C15.6579 21.3582 15.8739 22.2958 16.3358 23.146L16.2479 23.1937L16.3358 23.146C16.5063 23.4599 16.3901 23.8526 16.0761 24.0232L16.0284 23.9353L16.0761 24.0232C15.9782 24.0764 15.8722 24.1018 15.7678 24.1018C15.5386 24.1018 15.3162 23.9795 15.1989 23.7636M18.8852 19.7831L15.2868 23.7158M18.8852 19.7831C18.1678 19.8947 17.4497 19.8603 16.7483 19.6819C16.5003 19.2767 16.3053 18.8369 16.1715 18.3727C16.2225 18.2612 16.2769 18.1511 16.3358 18.0427L16.3359 18.0427M18.8852 19.7831L16.3359 18.0427M15.1989 23.7636L15.2868 23.7158M15.1989 23.7636C15.1989 23.7636 15.1989 23.7636 15.1989 23.7636L15.2868 23.7158M15.1989 23.7636C14.1209 21.7792 14.1209 19.4095 15.1989 17.4251M15.2868 23.7158C14.2249 21.7613 14.2249 19.4274 15.2868 17.4729M15.1989 17.4251C15.1989 17.4251 15.1989 17.4251 15.1989 17.4251L15.2868 17.4729M15.1989 17.4251C15.3418 17.162 15.4612 16.8906 15.557 16.6135M15.1989 17.4251L15.2868 17.4729M15.2868 17.4729L15.557 16.6135M15.557 16.6135C14.6984 17.5106 13.5916 18.1604 12.3415 18.4666M15.557 16.6135L11.5593 17.9922C11.6317 18.2877 11.8962 18.4854 12.1872 18.4854C12.2382 18.4854 12.29 18.4793 12.3415 18.4666M12.3415 18.4666L12.3177 18.3695L12.3416 18.4666C12.3415 18.4666 12.3415 18.4666 12.3415 18.4666ZM16.3359 18.0427C17.4139 16.0584 17.4139 13.6886 16.3359 11.7043M16.3359 18.0427L15.4586 11.4446M15.4586 11.4446L15.4586 11.4446C15.7726 11.2741 16.1653 11.3903 16.3359 11.7043M15.4586 11.4446C15.1446 11.6152 15.0285 12.0079 15.199 12.3218L15.199 12.3218M15.4586 11.4446L15.199 12.3218M16.3359 11.7043L16.2481 11.752L16.3359 11.7043C16.3359 11.7043 16.3359 11.7043 16.3359 11.7043ZM15.199 12.3218C15.4732 12.8265 15.6602 13.362 15.7611 13.9089C15.4888 14.6299 15.0716 15.2701 14.5447 15.7979C13.8198 15.808 13.1127 15.6732 12.4402 15.3964L12.4402 15.3964M15.199 12.3218L12.4402 15.3964M12.4402 15.3964C12.1098 15.2604 11.7318 15.418 11.5958 15.7484C11.4598 16.0787 11.6174 16.4568 11.9478 16.5928L11.9478 16.5928M12.4402 15.3964L11.9478 16.5928M11.9478 16.5928C12.2661 16.7238 12.5909 16.8291 12.9208 16.9087M11.9478 16.5928L12.9208 16.9087M12.9208 16.9087C12.6374 17.0334 12.3411 17.1347 12.0337 17.21L12.9208 16.9087Z" fill="#449DD0" stroke="#449DD0" stroke-width="0.2"/>
<path id="Vector_3" d="M27.2394 13.6294L27.2394 13.6294C27.2679 13.4281 27.2001 13.225 27.0563 13.0812L27.0563 13.0811L26.9681 12.993L27.7662 12.5532C28.0791 12.3808 28.193 11.9874 28.0206 11.6745L28.0206 11.6745C27.8481 11.3616 27.4548 11.2477 27.1418 11.4201L27.1418 11.4201L25.5899 12.2752L25.5899 12.2752C25.4118 12.3733 25.2902 12.5495 25.2616 12.7509L25.2616 12.7509C25.2331 12.9523 25.3009 13.1553 25.4447 13.2992L25.4447 13.2992L25.5329 13.3874L24.7348 13.8271C24.4219 13.9995 24.308 14.3929 24.4804 14.7058L24.4804 14.7058C24.5984 14.9199 24.8197 15.0407 25.0475 15.0407C25.1532 15.0407 25.2603 15.0148 25.3592 14.9602C25.3592 14.9602 25.3592 14.9602 25.3592 14.9602L26.9111 14.1052C27.0893 14.007 27.2108 13.8308 27.2394 13.6294Z" fill="#449DD0" stroke="#449DD0" stroke-width="0.2"/>
<path id="Vector_4" d="M26.9681 22.8539L27.0563 22.7658L27.0563 22.7657C27.2001 22.6219 27.2679 22.4188 27.2394 22.2175L27.2394 22.2174C27.2108 22.0161 27.0892 21.8399 26.9111 21.7417L26.9111 21.7417L25.3592 20.8866L25.3591 20.8866C25.0461 20.7143 24.6529 20.8282 24.4804 21.141L24.4804 21.1411C24.308 21.454 24.4219 21.8474 24.7348 22.0198L25.5329 22.4595L25.4447 22.5477L25.4447 22.5477C25.3009 22.6915 25.2331 22.8946 25.2616 23.096L25.2616 23.096C25.2902 23.2973 25.4117 23.4736 25.5899 23.5717C25.5899 23.5717 25.5899 23.5717 25.5899 23.5717L27.1418 24.4268L27.1419 24.4268C27.2407 24.4812 27.3478 24.5072 27.4535 24.5072C27.6813 24.5072 27.9026 24.3864 28.0206 24.1725L28.0206 24.1724C28.193 23.8595 28.0791 23.4661 27.7662 23.2937L26.9681 22.8539Z" fill="#449DD0" stroke="#449DD0" stroke-width="0.2"/>
<path id="Vector_5" d="M0.859151 11.4201L0.859153 11.4201L2.41106 12.2752C2.41107 12.2752 2.41107 12.2752 2.41107 12.2752C2.58922 12.3733 2.71084 12.5495 2.73937 12.7509C2.76789 12.9523 2.70011 13.1554 2.5563 13.2992L2.46811 13.3874L3.26616 13.8271C3.26616 13.8271 3.26617 13.8271 3.26617 13.8271C3.57914 13.9995 3.69296 14.393 3.52059 14.7059L3.52058 14.7059C3.40266 14.9199 3.18137 15.0407 2.95355 15.0407C2.84782 15.0407 2.74066 15.0147 2.64186 14.9603L2.69012 14.8727L2.64186 14.9603L1.08995 14.1052C1.08995 14.1052 1.08994 14.1052 1.08994 14.1052C0.911794 14.007 0.790177 13.8308 0.761648 13.6294C0.733125 13.4281 0.800904 13.225 0.944715 13.0812L1.0329 12.993L0.234856 12.5532C-0.07809 12.3809 -0.192019 11.9874 -0.019571 11.6745L0.859151 11.4201ZM0.859151 11.4201C0.546272 11.2477 0.152845 11.3616 -0.0195591 11.6745L0.859151 11.4201Z" fill="#449DD0" stroke="#449DD0" stroke-width="0.2"/>
<path id="Vector_6" d="M2.64183 20.8867L2.64184 20.8866C2.95478 20.7143 3.34815 20.8282 3.52054 21.141L3.52055 21.141C3.69294 21.4539 3.57903 21.8473 3.26613 22.0197M2.64183 20.8867L3.21787 21.9321M2.64183 20.8867L1.08992 21.7417C1.08991 21.7417 1.08991 21.7417 1.0899 21.7417C0.911759 21.8399 0.790142 22.0161 0.761613 22.2175C0.733087 22.4188 0.800878 22.6219 0.944663 22.7657L0.944679 22.7657M2.64183 20.8867L0.944679 22.7657M3.26613 22.0197L3.21787 21.9321M3.26613 22.0197L3.26613 22.0197L3.21787 21.9321M3.26613 22.0197L2.46808 22.4595M3.21787 21.9321L2.39446 22.3858L2.46808 22.4595M2.46808 22.4595L2.55626 22.5476L2.55628 22.5477C2.70007 22.6915 2.76786 22.8946 2.73933 23.0959C2.7108 23.2973 2.58918 23.4735 2.41103 23.5717M2.46808 22.4595L2.3769 22.5097L2.41103 23.5717M2.41103 23.5717L2.41104 23.5716L2.36278 23.4841L2.41103 23.5717ZM2.41103 23.5717L0.85916 24.4267C0.859146 24.4267 0.859132 24.4267 0.859117 24.4267C0.760272 24.4813 0.653101 24.5072 0.547429 24.5072C0.319631 24.5072 0.0983233 24.3864 -0.0196023 24.1724C-0.191996 23.8595 -0.0780816 23.4661 0.23481 23.2937C0.234811 23.2937 0.234812 23.2937 0.234813 23.2937L1.03287 22.8539M2.41103 23.5717L1.03287 22.8539M0.944679 22.7657L1.03287 22.8539M0.944679 22.7657L1.03287 22.8539" fill="#449DD0" stroke="#449DD0" stroke-width="0.2"/>
</g>
</g>
<defs>
<clipPath id="clip0_37_656">
<rect width="28" height="28" fill="white"/>
</clipPath>
</defs>
</svg>
